<svg xmlns="http://www.w3.org/2000/svg" viewBox="76 53 61 65" aria-hidden="true">
  <g fill="#fff">
    <path d="M133.2,88.17c0,3.28-2.66,5.94-5.94,5.94-.74,0-1.44-.13-2.09-.37-.66-.47-1.35-.91-2.06-1.3-3.07-1.71-6.61-2.68-10.37-2.68-10.55,0-19.33,7.64-21.08,17.69-.18,1.06-.3,2.15-.32,3.26-.87,2.21-3.02,3.77-5.53,3.77-3.28,0-5.95-2.66-5.95-5.95,0-1.73.74-3.28,1.91-4.37.93-.41,1.82-.88,2.66-1.41,6.05-3.78,10.06-10.5,10.06-18.16,0-6.53-2.93-12.39-7.54-16.31-.88-.75-1.83-1.43-2.83-2.03-.76-1-1.21-2.24-1.21-3.59,0-3.29,2.66-5.95,5.95-5.95,2.82,0,5.18,1.96,5.8,4.6-.09.76-.12,1.53-.12,2.3,0,.26,0,.53.01.79.41,11.45,9.83,20.62,21.4,20.62,2.59,0,5.06-.46,7.35-1.3h0c1.07-.39,2.11-.87,3.09-1.43.28-.04.56-.06.85-.06,3.28,0,5.94,2.66,5.94,5.95Z"/>
    <circle cx="110.35" cy="71.78" r="3.57"/>
    <circle cx="108.32" cy="102.57" r="3.57"/>
    <circle cx="82.58" cy="85.44" r="3.57"/>
  </g>
  <polygon points="108.27 102.7 110.35 71.78 82.5 85.42 108.27 102.7" fill="none" stroke="#fff" stroke-miterlimit="10" stroke-width=".66"/>
</svg>
